<?xml version="1.0" encoding="utf-8"?>
<!-- Generator: Adobe Illustrator 22.0.0, SVG Export Plug-In . SVG Version: 6.00 Build 0)  -->
<svg version="1.1" id="Layer_1" xmlns="http://www.w3.org/2000/svg" xmlns:xlink="http://www.w3.org/1999/xlink" x="0px" y="0px"
	 viewBox="0 0 425.2 425.2" style="enable-background:new 0 0 425.2 425.2;" xml:space="preserve">
<style type="text/css">
	.st0{fill:#181638;}
	.st1{fill:#C9C9C9;}
</style>
<rect class="st0" width="425.2" height="425.2"/>
<g>
	<path class="st1" d="M320,138H313c-2.7,0-5,2.2-5,5v7.1c0,2.7,2.2,5,5,5h7.1c2.7,0,5-2.2,5-5V143C325,140.2,322.8,138,320,138z"/>
	<path class="st1" d="M369.1,219.1H365c-3.8,0-6.9,3.1-6.9,6.9v4.2c0,3.8,3.1,6.9,6.9,6.9h4.2c3.8,0,6.9-3.1,6.9-6.9V226
		C376,222.2,372.9,219.1,369.1,219.1z"/>
	<path class="st1" d="M245.9,272.4h-6.2c-2.4,0-4.4,2-4.4,4.4v6.2c0,2.4,2,4.4,4.4,4.4h6.2c2.4,0,4.4-2,4.4-4.4v-6.2
		C250.3,274.3,248.3,272.4,245.9,272.4z"/>
	<path class="st1" d="M248.7,157.5h3.1c1,0,1.9-0.8,1.9-1.9v-3.1c0-1-0.8-1.9-1.9-1.9h-3.1c-1,0-1.9,0.8-1.9,1.9v3.1
		C246.8,156.7,247.6,157.5,248.7,157.5z"/>
	<path class="st1" d="M356.2,157.5h-3.4c-0.6,0-1.1,0.5-1.1,1.1v3.4c0,0.6,0.5,1.1,1.1,1.1h3.4c0.6,0,1.1-0.5,1.1-1.1v-3.4
		C357.3,158,356.8,157.5,356.2,157.5z"/>
	<path class="st1" d="M320.1,202.1h-2.5c-2.1,0-3.8,1.7-3.8,3.8v2.5c0,2.1,1.7,3.8,3.8,3.8h2.5c2.1,0,3.8-1.7,3.8-3.8V206
		C324,203.8,322.2,202.1,320.1,202.1z"/>
	<path class="st1" d="M311.7,256.4h-4.5c-0.7,0-1.3,0.6-1.3,1.3v4.5c0,0.7,0.6,1.3,1.3,1.3h4.5c0.7,0,1.3-0.6,1.3-1.3v-4.5
		C313,256.9,312.4,256.4,311.7,256.4z"/>
	<path class="st1" d="M351.9,268.7h-0.5c-0.9,0-1.6,0.7-1.6,1.6v0.5c0,0.9,0.7,1.6,1.6,1.6h0.5c0.9,0,1.6-0.7,1.6-1.6v-0.5
		C353.5,269.4,352.8,268.7,351.9,268.7z"/>
	<path class="st1" d="M85.2,221.1l-13.7-4.8c-3.9-1.4-5.1-2.9-5.1-4.9v-1.1c0-2.7,2.1-3.8,6.3-3.8h19.3c1.4,0,1.8-0.5,1.8-1.7v-8.1
		c0-1-0.4-1.4-1.7-1.7c-6.2-1.1-12.3-1.4-16.9-1.4c-15.4,0-24.3,4-24.3,15.4v2c0,6.8,2.5,13.4,10.9,16.3l13.2,4.7
		c4.7,1.6,5.9,3,5.9,5v1c0,2.9-1.7,3.6-7.4,3.6H51.5c-1.3,0-1.8,0.4-1.8,1.6v8.7c0,1.2,0.4,1.6,1.8,1.6c5.1,0.5,12.8,1.1,22.1,1.1
		c13.6,0,22.8-3.2,22.8-15.6v-1.7C96.4,229.9,94.3,224.3,85.2,221.1z"/>
	<path class="st1" d="M128.7,193.5c-21.6,0-26.8,6-26.8,30.5c0,24.4,5.2,30.5,26.8,30.5c7.1,0,14.8-0.3,20.4-1.5
		c1-0.1,1.5-0.5,1.5-1.7v-8.9c0-1.1-0.5-1.6-1.6-1.6h-18.9c-9.3,0-11.9-1.7-12.1-11.3h33.6c2.8,0,3.4-0.7,3.4-2.9v-3.3
		C154.9,199.4,149.8,193.5,128.7,193.5z M117.9,219.1c0.1-9.4,2.8-11.9,10.8-11.9c7.8,0,10.3,2.5,10.4,11.9H117.9z"/>
	<path class="st1" d="M191.3,193.5c-8,0-18.4,0.2-25.6,1.8c-1.1,0.2-1.6,0.3-1.6,1.6v55.3c0,1.2,0.5,1.7,1.6,1.7h12.7
		c1.1,0,1.6-0.5,1.6-1.7v-45h9.7c9.8,0,11.4,0.7,11.4,16v29c0,1.2,0.5,1.7,1.6,1.7h12.6c1.1,0,1.7-0.5,1.7-1.7v-33.1
		C217.2,197.4,211.8,193.5,191.3,193.5z"/>
	<path class="st1" d="M257.3,240.8h-4.4c-4.7,0-6.3-0.9-6.3-5.5v-29.2h9.8c1.2,0,1.8-0.5,1.8-1.6V196c0-1.1-0.6-1.6-1.8-1.6h-9.8
		v-15.3c0-1.2-0.6-1.9-1.7-1.6l-12.6,3.3c-1.1,0.2-1.5,0.6-1.5,1.7v11.9h-6.3c-1.2,0-1.7,0.5-1.7,1.6v8.6c0,1.1,0.5,1.6,1.7,1.6h6.3
		v34.5c0,13.5,8.3,13.8,17.5,13.8c2.4,0,5.3-0.2,9.1-1c1.2-0.2,1.7-0.7,1.7-2v-9.1C259.1,241.2,258.6,240.8,257.3,240.8z"/>
	<path class="st1" d="M281.9,194.1h-12.6c-1.1,0-1.6,0.5-1.6,1.6v56.6c0,1.2,0.5,1.7,1.6,1.7h12.6c1.1,0,1.6-0.5,1.6-1.7v-56.6
		C283.5,194.6,282.9,194.1,281.9,194.1z"/>
	<path class="st1" d="M269,185.3h13.1c0.7,0,1.3-0.6,1.3-1.3v-13.1c0-0.7-0.6-1.3-1.3-1.3H269c-0.7,0-1.3,0.6-1.3,1.3V184
		C267.7,184.7,268.3,185.3,269,185.3z"/>
</g>
</svg>
