<?xml version="1.0" encoding="utf-8"?>
<!-- Generator: Adobe Illustrator 22.0.1, SVG Export Plug-In . SVG Version: 6.00 Build 0)  -->
<svg version="1.1" id="Layer_1" xmlns="http://www.w3.org/2000/svg" xmlns:xlink="http://www.w3.org/1999/xlink" x="0px" y="0px"
	 viewBox="0 0 841.9 595.3" style="enable-background:new 0 0 841.9 595.3;" xml:space="preserve">
<style type="text/css">
	.st0{fill:#FFFFFF;}
	.st1{fill:#FFFFFF;stroke:#FFFFFF;stroke-width:3;stroke-miterlimit:10;}
	.st2{fill:none;}
	.st3{fill:#3C97D3;}
	.st4{fill:#F7BB2E;}
	.st5{fill:#D5489A;}
	.st6{fill:#D42128;}
	.st7{fill:#F8961D;}
	.st8{fill:#E9238F;}
	.st9{fill:#46B167;}
</style>
<g>
	<path d="M790.7,425.2H51.2C22.9,425.2,0,402.3,0,374.1V221.2C0,193,22.9,170,51.2,170h739.5c28.3,0,51.2,22.9,51.2,51.2v152.8
		C841.9,402.3,819,425.2,790.7,425.2z"/>
	<g>
		<path class="st0" d="M283.1,309.3h-50.4c1.9,8.3,8.9,13.4,19.1,13.4c7.1,0,12.1-2.1,16.7-6.4l10.3,11.1
			c-6.2,7.1-15.5,10.8-27.5,10.8c-23,0-38-14.5-38-34.3c0-19.9,15.2-34.3,35.5-34.3c19.6,0,34.7,13.1,34.7,34.5
			C283.4,305.6,283.2,307.7,283.1,309.3z M232.4,298h32.8c-1.4-8.4-7.7-13.9-16.3-13.9C240.1,284.1,233.8,289.5,232.4,298z"/>
		<path class="st0" d="M366.8,303.8c0,20.9-14.5,34.3-33.2,34.3c-8.9,0-16.1-2.8-20.9-8.7v7.7h-18.4v-91.9h19.3v32.3
			c5-5.4,11.8-8,20.1-8C352.3,269.5,366.8,282.9,366.8,303.8z M347.2,303.8c0-11.5-7.3-18.4-17-18.4c-9.7,0-17,6.9-17,18.4
			c0,11.5,7.3,18.4,17,18.4C339.9,322.3,347.2,315.3,347.2,303.8z"/>
		<path class="st0" d="M445.7,299v38.1h-19.3V302c0-10.8-5-15.7-13.5-15.7c-9.3,0-16,5.7-16,18v32.9h-19.3v-91.9h19.3v32.2
			c5.2-5.2,12.6-7.9,21.2-7.9C433.8,269.5,445.7,278.7,445.7,299z"/>
		<path class="st0" d="M454.8,303.8c0-20.1,15.5-34.3,36.6-34.3c21.2,0,36.5,14.2,36.5,34.3s-15.4,34.3-36.5,34.3
			C470.3,338.1,454.8,323.9,454.8,303.8z M508.4,303.8c0-11.5-7.3-18.4-17-18.4c-9.7,0-17.1,6.9-17.1,18.4
			c0,11.5,7.4,18.4,17.1,18.4C501.1,322.3,508.4,315.3,508.4,303.8z"/>
		<path class="st0" d="M603.9,270.5v66.6h-18.3v-7.9c-5.1,5.8-12.5,8.9-20.7,8.9c-16.7,0-28.5-9.4-28.5-30v-37.6h19.3v34.8
			c0,11.1,5,16.1,13.5,16.1c8.9,0,15.4-5.7,15.4-18v-32.9H603.9z"/>
		<path class="st0" d="M615.4,330.9l6.4-13.9c5.9,3.8,15,6.4,23.2,6.4c8.9,0,12.3-2.4,12.3-6.1c0-10.9-40.2,0.2-40.2-26.4
			c0-12.6,11.4-21.5,30.8-21.5c9.2,0,19.3,2.1,25.6,5.8l-6.4,13.7c-6.6-3.7-13.1-5-19.2-5c-8.7,0-12.4,2.7-12.4,6.2
			c0,11.4,40.2,0.4,40.2,26.6c0,12.4-11.5,21.2-31.4,21.2C633,338.1,621.6,335,615.4,330.9z"/>
		<path class="st0" d="M752.4,309.3H702c1.9,8.3,8.9,13.4,19.1,13.4c7.1,0,12.1-2.1,16.7-6.4l10.3,11.1
			c-6.2,7.1-15.5,10.8-27.5,10.8c-23,0-38-14.5-38-34.3c0-19.9,15.2-34.3,35.5-34.3c19.6,0,34.7,13.1,34.7,34.5
			C752.8,305.6,752.6,307.7,752.4,309.3z M701.8,298h32.8c-1.4-8.4-7.7-13.9-16.3-13.9C709.5,284.1,703.2,289.5,701.8,298z"/>
		<g>
			<path class="st0" d="M203.6,264.9v39.8c0,21.2-11.9,33.4-33.5,33.4c-9.9,0-18.1-2.7-23.7-10.2c-5.5,7.2-13.4,10.2-23.9,10.2
				c-21.7,0-33.4-12.2-33.4-33.4v-39.8H110v38.2c0,11.9,3.9,17.4,12.7,17.4s13.1-5.5,13.1-17.4v-38.2h20.9v38.2
				c0,11.9,4.3,17.4,13.1,17.4c8.9,0,12.7-5.5,12.7-17.4v-38.2H203.6z"/>
		</g>
	</g>
</g>
</svg>
